<svg width="1000" height="1000" viewBox="0 0 1000 1000" fill="none" xmlns="http://www.w3.org/2000/svg">
<path d="M422.043 493.516C423.151 493.832 424.575 496.16 424.846 497.494C426.428 505.812 424.575 521.86 424.846 531.331C424.914 533.998 426.044 536.462 426.067 539.129C426.247 560.037 424.869 580.877 424.349 601.762C422.54 604.814 405.34 604.768 402.333 603.412C395.507 600.338 398.988 583.386 391.687 584.787C388.048 585.488 378.803 596.134 375.142 598.846C337.914 626.354 277.632 607.707 252.158 571.881C219.564 526.042 226.323 441.619 273.699 407.307C319.131 374.375 412.459 386.738 423.693 451.293C424.01 453.056 423.987 458.549 422.066 458.549H387.076C383.347 458.549 380.431 447.88 378.419 444.648C363.863 421.027 322.793 419.942 301.275 433.73C272.659 452.084 265.426 504.365 276.456 534.111C284.006 554.499 293.477 566.253 314.52 572.762C340.084 580.673 361.874 576.062 378.6 554.951C383.482 548.78 395.326 527.443 381.38 525.16C374.125 523.962 347.295 527.149 343.61 523.442C341.96 521.77 341.892 498.375 343.09 495.799C343.339 495.256 345.125 493.516 345.328 493.516H422.088H422.043Z" fill="black"/>
<path d="M500.228 388.953C537.229 384.794 586.956 393.225 598.348 434.634C599.749 439.697 604.247 453.756 596.947 455.135C593.782 455.745 565.573 455.519 563.675 454.615C558.25 445.551 557.12 436.759 547.898 429.774C527.984 414.721 475.161 421.796 479.116 453.372C480.54 464.764 492.61 470.121 502.217 473.127C532.595 482.621 602.484 487.978 606.553 529.025C613.334 597.648 564.895 615.391 505.494 610.803C476.404 608.565 447.156 592.879 438.702 563.653C437.459 559.336 433.684 545.955 438.363 543.672C440.171 542.79 468.538 542.542 471.635 543.129C476.562 544.079 477.557 555.222 480.766 559.946C496.34 582.843 545.366 586.821 561.889 563.336C571.066 550.294 565.912 537.207 552.712 529.793C520.797 511.892 457.915 516.593 443.471 476.563C428.056 433.798 456.197 393.903 500.205 388.953H500.228Z" fill="black"/>
<path d="M625.224 395.396H764.052C764.888 395.396 766.606 398.131 766.855 399.374C767.533 402.855 767.284 421.773 765.815 424.215C765.295 425.096 763.668 426.452 762.696 426.724L665.887 426.995C661.66 428.374 659.219 432.487 658.631 436.646C657.659 443.472 657.659 464.584 658.631 471.387C659.151 475.094 660.733 477.648 663.559 479.999L751.44 482.418C756.57 484.972 755.056 512.638 751.666 512.638H667.017C661.434 512.638 659.015 519.939 658.563 524.505C656.145 548.69 660.756 576.13 658.021 600.632C655.806 603.977 624.071 604.294 622.579 599.864L623.009 397.633L625.246 395.35L625.224 395.396Z" fill="black"/>
</svg>
